<svg xmlns="http://www.w3.org/2000/svg" style="display: none;">
    <symbol id="undo" viewBox="0 -960 960 960">
        <path d="M280-200v-80h284q63 0 109.5-40T720-420q0-60-46.5-100T564-560H312l104 104-56 56-200-200 200-200 56 56-104 104h252q97 0 166.5 63T800-420q0 94-69.5 157T564-200H280Z" />
    </symbol>

    <symbol id="redo" viewBox="0 -960 960 960">
        <path d="M396-200q-97 0-166.5-63T160-420q0-94 69.5-157T396-640h252L544-744l56-56 200 200-200 200-56-56 104-104H396q-63 0-109.5 40T240-420q0 60 46.5 100T396-280h284v80H396Z" />
    </symbol>

    <symbol id="restart-alt" viewBox="0 -960 960 960">
        <path d="M440-122q-121-15-200.5-105.5T160-440q0-66 26-126.5T260-672l57 57q-38 34-57.5 79T240-440q0 88 56 155.5T440-202v80Zm80 0v-80q87-16 143.5-83T720-440q0-100-70-170t-170-70h-3l44 44-56 56-140-140 140-140 56 56-44 44h3q134 0 227 93t93 227q0 121-79.5 211.5T520-122Z"/>
    </symbol>

    <symbol id="check" viewBox="0 -960 960 960">
        <path d="M382-240 154-468l57-57 171 171 367-367 57 57-424 424Z" />
    </symbol>

    <symbol id="close" viewBox="0 -960 960 960">
        <path d="m256-200-56-56 224-224-224-224 56-56 224 224 224-224 56 56-224 224 224 224-56 56-224-224-224 224Z"/>
    </symbol>
</svg>